<svg width="17" height="16" viewBox="0 0 17 16" fill="none" xmlns="http://www.w3.org/2000/svg">
<path d="M3.84505 2.16652C3.84483 2.60855 3.66902 3.03239 3.35631 3.34479C3.04359 3.6572 2.61958 3.83258 2.17755 3.83236C1.73553 3.83214 1.31169 3.65633 0.999285 3.34361C0.686881 3.0309 0.511498 2.60688 0.511719 2.16486C0.51194 1.72283 0.687747 1.29899 1.00046 0.98659C1.31318 0.674185 1.73719 0.498803 2.17922 0.499024C2.62125 0.499245 3.04508 0.675051 3.35749 0.987768C3.66989 1.30049 3.84527 1.7245 3.84505 2.16652ZM3.89505 5.06652H0.561719V15.4999H3.89505V5.06652ZM9.16172 5.06652H5.84505V15.4999H9.12839V10.0249C9.12839 6.97486 13.1034 6.69152 13.1034 10.0249V15.4999H16.3951V8.89152C16.3951 3.74986 10.5117 3.94152 9.12839 6.46652L9.16172 5.06652Z" fill="white"/>
</svg>
